<?xml version="1.0" standalone="no"?>
<svg xmlns="http://www.w3.org/2000/svg" viewBox="0 0 191.784 25.409" width="191.784" height="25.409"><g fill="#A04668" color="#A04668" transform="translate(0, 0) scale(0.29)"><g transform="translate(-0.24, -12.616)"><svg width="100.0" height="70.625" x="0.24" y="12.616" viewBox="0.24 12.616 100 70.625"><rect x="41.932" y="19.744" width="39.071" height="6.451"></rect><polyline points="41.811,20.405 38.457,20.405 43.969,12.616 78.844,12.616 84.479,20.405 80.882,20.405 "></polyline><line fill="none" x1="86.621" y1="34.698" x2="91.972" y2="34.698"></line><rect x="86.621" y="32.9" width="5.351" height="3.596"></rect><path d="M100.24,62.654H89.813V31.912h10.427V62.654z M91.972,60.496h6.111V34.069h-6.111V60.496z"></path><path d="M87.028,25.369H35.59V82.98h15.431V71.664h9.26V82.98h3.086V71.664h8.23V82.98h15.431V25.369z M57.194,62.405H41.763v-7.202  h15.431V62.405z M57.194,51.088H41.763v-7.201h15.431V51.088z M57.194,38.743H41.763v-7.201h15.431V38.743z M80.856,62.405H65.425  v-7.202h15.432V62.405z M80.856,51.088H65.425v-7.201h15.432V51.088z M80.856,38.743H65.425v-7.201h15.432V38.743z"></path><path d="M26.194,83.241c0,0,2.674-11.427-1.626-18.217c-4.3-6.791-8.034-7.814-8.996-8.151c-2.198-0.768-8.874,5.639-8.316,11.094  c-2.77-3.756-3.514-11.706,2.729-14.668c-1.922-1.134-6.963,1.151-9.745,3.578c0-4.864,5.26-9.927,10.871-8.976  c0.873-1.204,1.244-8.532,12.312-8.806c-4.337,2.223-7.23,7.445-6.896,9.483c0.418-0.53,8.829-6.921,16.289,3.281  c-4.765-1.664-10.517-1.664-13.229,2.528c16.068,7.468,11.51,28.846,11.03,28.851C29.868,83.241,26.194,83.241,26.194,83.241z"></path></svg></g></g><line x1="41" y1="1" x2="41" y2="19.482" stroke="#A04668" stroke-linecap="round"></line><path fill="#A04668" fill-rule="nonzero" d="M0 9.77L0 9.77Q0.07 8.93 0.65 8.93L0.65 8.93Q1.03 8.93 1.63 9.31L1.63 9.31L1.49 2.28Q1.49 1.75 1.78 1.40Q2.06 1.06 2.47 1.06Q2.88 1.06 3.17 1.39Q3.46 1.73 3.46 2.28Q3.46 2.83 3.40 4.34Q3.34 5.86 3.34 9.96L3.34 9.96Q4.37 10.32 6.10 10.32L6.10 10.32Q9.94 10.32 11.81 7.97L11.81 7.97L11.69 2.66Q11.69 1.06 12.74 1.06L12.74 1.06Q13.58 1.06 13.75 1.80L13.75 1.80Q13.94 2.50 13.94 4.07Q13.94 5.64 13.49 8.81L13.49 8.81L13.66 18.31Q13.68 19.06 13.18 19.37L13.18 19.37Q12.94 19.54 12.67 19.54L12.67 19.54L12.17 19.37Q11.66 19.06 11.69 18.31L11.69 18.31L11.83 11.02L11.83 10.25Q10.92 11.02 9.25 11.47Q7.58 11.93 6.06 11.93Q4.54 11.93 3.34 11.69L3.34 11.69L3.46 18.31Q3.48 19.06 2.98 19.37L2.98 19.37Q2.71 19.54 2.47 19.54L2.47 19.54L1.97 19.37Q1.46 19.06 1.49 18.31L1.49 18.31L1.58 11.28Q0 10.75 0 9.77ZM18.89 13.32Q18.89 15.31 19.99 16.70Q21.10 18.10 22.76 18.10Q24.43 18.10 25.60 16.69Q26.76 15.29 26.76 13.30Q26.76 11.30 25.64 9.90Q24.53 8.50 22.88 8.50Q21.24 8.50 20.04 9.91L20.04 9.91Q18.89 11.33 18.89 13.32ZM18.77 17.82Q17.18 15.98 17.18 13.32Q17.18 10.66 18.79 8.80Q20.40 6.94 22.85 6.94Q25.30 6.94 26.88 8.77Q28.46 10.61 28.46 13.28Q28.46 15.96 26.84 17.81Q25.22 19.66 22.79 19.66Q20.35 19.66 18.77 17.82ZM35.78 8.81L35.78 8.81L33.79 8.76L33.74 14.45Q33.74 16.66 33.91 17.32Q34.08 17.98 34.87 17.98L34.87 17.98Q35.26 17.98 35.78 17.72Q36.31 17.47 36.43 17.47L36.43 17.47Q36.94 17.47 36.94 17.98Q36.94 18.48 36.05 19.01Q35.16 19.54 34.30 19.54L34.30 19.54Q32.21 19.54 32.21 16.46L32.21 16.46L32.18 8.76Q31.39 8.83 31.08 8.83L31.08 8.83Q29.88 8.83 29.88 8.04Q29.88 7.25 31.08 7.25L31.08 7.25L32.14 7.30L32.09 4.61Q32.09 3.41 33 3.41Q33.91 3.41 33.91 4.61L33.91 4.61L33.84 7.32L35.78 7.22Q36.98 7.22 36.98 8.04L36.98 8.04Q36.98 8.81 35.78 8.81ZM44.83 8.50L44.83 8.50Q43.25 8.50 42.18 9.68Q41.11 10.87 40.78 12.46L40.78 12.46Q42.07 12.84 43.69 12.84Q45.31 12.84 46.30 12.29Q47.28 11.74 47.28 10.78Q47.28 9.82 46.62 9.16Q45.96 8.50 44.83 8.50ZM43.80 14.35L43.80 14.35Q42.55 14.35 40.75 13.99L40.75 13.99Q40.90 15.70 42.01 16.90Q43.13 18.10 44.62 18.10Q46.10 18.10 47.06 17.36Q48.02 16.63 48.32 16.63Q48.62 16.63 48.80 16.81Q48.98 16.99 48.98 17.26L48.98 17.26Q48.98 17.93 47.60 18.79Q46.22 19.66 44.62 19.66L44.62 19.66Q42.12 19.66 40.64 17.89Q39.17 16.13 39.07 13.68L39.07 13.68Q37.80 13.27 37.80 12.43L37.80 12.43Q37.80 11.88 38.21 11.71L38.21 11.71Q38.35 11.66 38.58 11.66Q38.81 11.66 39.22 11.88L39.22 11.88Q39.77 9.70 41.22 8.32Q42.67 6.94 44.63 6.94Q46.58 6.94 47.78 8.02Q48.98 9.10 48.98 10.84Q48.98 12.58 47.50 13.46Q46.01 14.35 43.80 14.35ZM53.76 2.26L53.76 2.26L53.64 10.30L53.76 18.34Q53.76 19.54 52.85 19.54Q51.94 19.54 51.94 18.34L51.94 18.34L52.06 10.30L51.94 2.26Q51.94 1.06 52.85 1.06Q53.76 1.06 53.76 2.26ZM68.98 18.62Q68.98 18.89 68.70 19.21Q68.42 19.54 67.98 19.54Q67.54 19.54 67.28 19.21Q67.03 18.89 67.02 18.62Q67.01 18.36 67.01 18.10Q67.01 17.83 67.06 16.28Q67.10 14.74 67.10 10.30Q67.10 5.86 67.37 4.32L67.37 4.32Q66.10 4.22 64.56 3.77L64.56 3.77Q61.73 2.90 61.73 1.90L61.73 1.90Q61.70 1.34 62.21 1.08L62.21 1.08Q62.45 0.96 62.68 0.96Q62.90 0.96 63.14 1.15L63.14 1.15Q63.50 1.34 63.77 1.54L63.77 1.54Q64.70 2.18 67.73 2.64L67.73 2.64Q68.35 1.37 69.67 0.68Q70.99 0 72.49 0Q73.99 0 74.81 0.67L74.81 0.67Q75.67 1.32 75.67 2.20Q75.67 3.07 74.69 3.82Q73.70 4.56 71.21 4.56L71.21 4.56Q69.84 4.56 69.07 4.49L69.07 4.49Q68.83 5.21 68.83 9.31Q68.83 13.42 68.90 15.89Q68.98 18.36 68.98 18.62ZM72.31 1.68L72.31 1.68Q70.30 1.68 69.48 2.83L69.48 2.83Q70.10 2.95 70.85 2.95Q71.59 2.95 72.73 2.74Q73.87 2.52 73.87 2.18L73.87 2.18Q73.87 1.68 72.31 1.68ZM78.29 13.80L78.29 13.80L78.36 18.31Q78.36 19.54 77.45 19.54L77.45 19.54Q76.34 19.54 76.34 17.89Q76.34 16.25 76.82 13.10L76.82 13.10Q76.82 12.10 76.62 10.28Q76.42 8.47 76.42 8.09Q76.42 7.70 76.68 7.38Q76.94 7.06 77.35 7.06Q77.76 7.06 78.02 7.38Q78.29 7.70 78.29 8.04Q78.29 8.38 78.28 9.12Q78.26 9.86 78.26 10.15L78.26 10.15Q78.72 8.95 79.75 7.99L79.75 7.99Q80.81 7.06 81.85 7.06Q82.90 7.06 83.51 7.48Q84.12 7.90 84.12 8.42Q84.12 8.95 83.86 9.24Q83.59 9.53 83.17 9.53Q82.75 9.53 82.25 9.10L82.25 9.10Q81.79 8.64 81.48 8.64L81.48 8.64Q80.69 8.64 79.63 10.36Q78.58 12.07 78.29 13.80ZM87.31 1.90L87.31 1.90Q88.30 1.90 88.30 3.05L88.30 3.05Q88.30 3.58 87.95 4.04Q87.60 4.51 87.12 4.51L87.12 4.51Q86.11 4.51 86.11 3.29L86.11 3.29Q86.11 2.71 86.46 2.30Q86.81 1.90 87.31 1.90ZM88.10 8.26L88.10 8.26L87.98 13.30L88.10 18.34Q88.10 19.54 87.19 19.54Q86.28 19.54 86.28 18.34L86.28 18.34L86.40 13.30L86.28 8.26Q86.28 7.06 87.19 7.06Q88.10 7.06 88.10 8.26ZM96.29 16.32L96.29 16.32L97.54 12.89Q97.82 12.12 98.40 10.30Q98.98 8.47 99.19 7.92L99.19 7.92Q99.53 7.06 100.13 7.06L100.13 7.06Q100.49 7.06 100.74 7.28Q100.99 7.51 100.99 7.84Q100.99 8.16 100.86 8.52Q100.73 8.88 100.62 9.13Q100.51 9.38 100.34 9.83Q100.18 10.27 99.94 10.87Q99.70 11.47 98.60 14.52Q97.51 17.57 97.01 18.55Q96.50 19.54 95.68 19.54Q94.85 19.54 94.42 18.67L94.42 18.67Q94.27 18.41 93.17 15.50L93.17 15.50L91.73 11.74Q90.86 9.53 90.65 8.92Q90.43 8.30 90.43 7.91Q90.43 7.51 90.67 7.28Q90.91 7.06 91.27 7.06L91.27 7.06Q91.92 7.06 92.26 7.90L92.26 7.90Q92.47 8.45 92.95 10.01L92.95 10.01L94.37 14.04Q95.11 16.15 95.35 16.75Q95.59 17.35 95.69 17.38L95.69 17.38Q95.88 17.38 96.29 16.32ZM112.61 13.49L112.61 13.49Q112.61 15.24 112.86 16.40Q113.11 17.57 113.50 17.71L113.50 17.71Q113.64 17.78 113.84 17.81Q114.05 17.83 114.13 17.88Q114.22 17.93 114.22 18.07L114.22 18.07Q114.22 18.74 113.86 19.14Q113.50 19.54 112.81 19.54Q112.13 19.54 111.74 18.66Q111.36 17.78 111.36 16.37L111.36 16.37Q110.71 17.76 109.56 18.65Q108.41 19.54 106.96 19.54Q105.50 19.54 104.47 18.58L104.47 18.58Q102.55 16.80 102.55 13.56L102.55 13.56Q102.55 10.94 104.06 9Q105.58 7.06 107.95 7.06L107.95 7.06Q109.75 7.06 111.07 8.28L111.07 8.28Q111.07 7.06 111.98 7.06L111.98 7.06Q113.09 7.06 113.09 8.70Q113.09 10.34 112.61 13.49ZM111.22 13.70L111.22 13.70L111.10 10.01Q109.68 8.62 108.10 8.62Q106.51 8.62 105.38 10.03Q104.26 11.45 104.26 13.45Q104.26 15.46 105.00 16.72Q105.74 17.98 107.06 17.98Q108.38 17.98 109.50 16.80Q110.62 15.62 111.22 13.70ZM124.80 13.68L124.80 13.68L124.80 10.01Q123.48 8.62 121.88 8.62Q120.29 8.62 119.10 10.03Q117.91 11.45 117.91 13.43Q117.91 15.41 118.67 16.69Q119.42 17.98 120.72 17.98Q122.02 17.98 123.11 16.76Q124.20 15.55 124.80 13.68ZM124.75 8.18L124.75 8.18Q124.80 7.06 125.66 7.06L125.66 7.06Q126.77 7.06 126.77 8.70Q126.77 10.34 126.29 13.49L126.29 13.49Q126.58 16.42 126.58 17.86L126.58 17.86Q126.58 20.98 125.09 22.90Q123.60 24.82 120.96 24.82L120.96 24.82Q119.52 24.82 118.18 24.20Q116.83 23.59 116.83 22.98Q116.83 22.37 117.38 22.37L117.38 22.37Q117.60 22.37 118.61 22.81Q119.62 23.26 120.96 23.26L120.96 23.26Q122.88 23.26 123.98 21.83Q125.09 20.40 125.09 18.10L125.09 18.10Q125.09 17.26 124.97 16.37L124.97 16.37Q124.42 17.66 123.24 18.60Q122.06 19.54 120.79 19.54L120.79 19.54Q118.49 19.54 117.22 17.54L117.22 17.54Q116.14 15.74 116.14 13.34Q116.14 10.94 117.74 9Q119.35 7.06 121.75 7.06L121.75 7.06Q123.41 7.06 124.75 8.18ZM131.21 13.32Q131.21 15.31 132.31 16.70Q133.42 18.10 135.08 18.10Q136.75 18.10 137.92 16.69Q139.08 15.29 139.08 13.30Q139.08 11.30 137.96 9.90Q136.85 8.50 135.20 8.50Q133.56 8.50 132.36 9.91L132.36 9.91Q131.21 11.33 131.21 13.32ZM131.09 17.82Q129.50 15.98 129.50 13.32Q129.50 10.66 131.11 8.80Q132.72 6.94 135.17 6.94Q137.62 6.94 139.20 8.77Q140.78 10.61 140.78 13.28Q140.78 15.96 139.16 17.81Q137.54 19.66 135.11 19.66Q132.67 19.66 131.09 17.82Z" transform="translate(51, 0.593)"></path></svg>